<?xml version="1.0" encoding="UTF-8" standalone="no"?><!-- Generator: Gravit.io --><svg xmlns="http://www.w3.org/2000/svg" xmlns:xlink="http://www.w3.org/1999/xlink" style="isolation:isolate" viewBox="0 0 45 45" width="45pt" height="45pt"><defs><clipPath id="_clipPath_h7z5zADjZKSkKVADdxLr7XMfkEQAsqhd"><rect width="45" height="45"/></clipPath></defs><g clip-path="url(#_clipPath_h7z5zADjZKSkKVADdxLr7XMfkEQAsqhd)"><g><g><g><g><path d=" M 22.5 44.164 C 28.305 44.164 33.747 41.936 37.841 37.841 C 41.936 33.747 44.164 28.305 44.164 22.5 C 44.164 16.695 41.936 11.253 37.841 7.159 C 33.747 3.064 28.305 0.836 22.5 0.836 C 16.695 0.836 11.253 3.064 7.159 7.159 C 3.064 11.253 0.836 16.695 0.836 22.5 C 0.836 28.305 3.064 33.747 7.159 37.841 C 11.253 41.936 16.695 44.164 22.5 44.164 Z  M 23.744 40.485 C 23.329 40.536 22.915 40.536 22.5 40.536 C 21.93 40.536 21.36 40.485 20.79 40.433 C 18.924 37.53 17.524 34.421 16.695 31.155 L 25.869 31.155 C 26.18 31.933 26.75 32.658 27.424 33.125 C 26.543 35.716 25.299 38.152 23.744 40.485 L 23.744 40.485 Z  M 28.668 39.448 C 29.652 37.634 30.43 35.82 31.052 33.902 C 32.555 33.591 33.747 32.555 34.317 31.155 L 38.308 31.155 C 36.235 34.939 32.762 37.893 28.668 39.448 Z  M 40.485 22.5 C 40.485 24.21 40.225 25.869 39.811 27.476 L 34.213 27.476 C 33.902 26.802 33.384 26.18 32.762 25.713 C 32.866 24.573 32.918 23.433 32.918 22.293 C 32.918 20.686 32.814 19.079 32.607 17.524 L 39.759 17.524 C 40.277 19.079 40.485 20.79 40.485 22.5 L 40.485 22.5 Z  M 38.308 13.845 L 31.985 13.845 C 31.311 10.994 30.326 8.299 28.979 5.707 C 32.918 7.21 36.235 10.165 38.308 13.845 Z  M 29.29 22.293 C 29.29 23.174 29.238 24.055 29.186 24.936 C 27.735 25.247 26.543 26.18 25.973 27.476 L 15.97 27.476 C 15.762 25.921 15.607 24.314 15.607 22.759 C 15.607 21.774 15.659 20.79 15.762 19.805 C 17.11 19.546 18.198 18.665 18.872 17.524 L 28.979 17.524 C 29.186 19.079 29.29 20.686 29.29 22.293 L 29.29 22.293 Z  M 21.152 4.567 C 21.619 4.515 22.085 4.515 22.5 4.515 C 23.018 4.515 23.537 4.515 24.055 4.567 C 25.921 7.47 27.32 10.579 28.149 13.845 L 19.131 13.845 C 18.82 12.963 18.25 12.186 17.524 11.616 C 18.457 9.128 19.649 6.796 21.152 4.567 Z  M 16.229 5.604 C 15.348 7.262 14.57 9.024 13.948 10.787 C 12.342 11.098 11.046 12.29 10.528 13.793 L 6.744 13.793 C 8.765 10.113 12.134 7.159 16.229 5.604 Z  M 4.515 22.5 C 4.515 20.79 4.775 19.079 5.241 17.524 L 10.89 17.524 C 11.201 18.095 11.668 18.613 12.186 19.027 C 12.082 20.271 11.979 21.515 11.979 22.759 C 11.979 24.366 12.082 25.921 12.29 27.476 L 5.241 27.476 C 4.723 25.869 4.515 24.21 4.515 22.5 Z  M 12.912 31.104 C 13.585 33.902 14.57 36.649 15.918 39.241 C 11.979 37.686 8.714 34.783 6.692 31.104 L 12.912 31.104 Z " fill="rgb(255,215,215)"/></g></g></g></g></g></svg>