<?xml version="1.0" encoding="UTF-8" standalone="no"?>
<!-- Generator: Gravit.io -->
<svg xmlns="http://www.w3.org/2000/svg" xmlns:xlink="http://www.w3.org/1999/xlink" style="isolation:isolate" viewBox="0 0 252.823 43.329" width="252.823pt" height="43.329pt"><defs><clipPath id="_clipPath_TiEOWAK4KC80w3CcTdYCOCTtcFJ6SHVs"><rect width="252.823" height="43.329"/></clipPath></defs><g clip-path="url(#_clipPath_TiEOWAK4KC80w3CcTdYCOCTtcFJ6SHVs)"><g><g><path d=" M 77.769 29.771 L 77.769 29.771 Q 72.973 29.771 69.739 26.537 L 69.739 26.537 L 69.739 26.537 Q 66.505 23.303 66.505 18.463 L 66.505 18.463 L 66.505 18.463 Q 66.505 13.711 69.739 10.455 L 69.739 10.455 L 69.739 10.455 Q 72.973 7.221 77.769 7.221 L 77.769 7.221 L 77.769 7.221 Q 82.587 7.221 86.041 10.235 L 86.041 10.235 L 83.049 13.513 L 83.049 13.513 Q 80.739 11.709 77.769 11.709 L 77.769 11.709 L 77.769 11.709 Q 74.733 11.731 72.863 13.623 L 72.863 13.623 L 72.863 13.623 Q 71.015 15.493 71.015 18.419 L 71.015 18.419 L 71.015 18.419 Q 71.015 21.565 72.885 23.413 L 72.885 23.413 L 72.885 23.413 Q 74.755 25.261 77.791 25.261 L 77.791 25.261 L 77.791 25.261 Q 80.233 25.261 81.531 24.315 L 81.531 24.315 L 81.531 20.443 L 78.539 20.465 L 78.539 16.241 L 86.041 16.241 L 86.041 26.779 L 86.041 26.779 Q 82.609 29.771 77.769 29.771 L 77.769 29.771 Z  M 94.115 14.723 L 94.115 16.395 L 94.115 16.395 Q 95.743 14.745 98.053 14.745 L 98.053 14.745 L 98.053 14.745 Q 98.779 14.745 99.439 14.855 L 99.439 14.855 L 98.779 19.013 L 98.779 19.013 Q 98.053 18.353 96.689 18.309 L 96.689 18.309 L 96.689 18.309 Q 95.149 18.419 94.115 20.531 L 94.115 20.531 L 94.115 29.771 L 89.913 29.771 L 89.913 15.185 L 94.115 14.723 Z  M 109.009 29.925 L 109.009 29.925 Q 105.731 29.925 103.531 27.725 L 103.531 27.725 L 103.531 27.725 Q 101.353 25.525 101.353 22.269 L 101.353 22.269 L 101.353 22.269 Q 101.353 18.991 103.531 16.791 L 103.531 16.791 L 103.531 16.791 Q 105.731 14.591 109.009 14.591 L 109.009 14.591 L 109.009 14.591 Q 112.287 14.591 114.487 16.791 L 114.487 16.791 L 114.487 16.791 Q 116.687 18.991 116.687 22.269 L 116.687 22.269 L 116.687 22.269 Q 116.687 25.547 114.487 27.725 L 114.487 27.725 L 114.487 27.725 Q 112.287 29.925 109.009 29.925 L 109.009 29.925 Z  M 109.009 26.295 L 109.009 26.295 L 109.009 26.295 Q 110.703 26.295 111.781 25.129 L 111.781 25.129 L 111.781 25.129 Q 112.859 23.985 112.859 22.269 L 112.859 22.269 L 112.859 22.269 Q 112.859 20.553 111.781 19.409 L 111.781 19.409 L 111.781 19.409 Q 110.703 18.243 108.987 18.243 L 108.987 18.243 L 108.987 18.243 Q 107.293 18.243 106.215 19.409 L 106.215 19.409 L 106.215 19.409 Q 105.159 20.553 105.159 22.269 L 105.159 22.269 L 105.159 22.269 Q 105.159 23.985 106.215 25.129 L 106.215 25.129 L 106.215 25.129 Q 107.293 26.295 109.009 26.295 Z  M 128.611 24.447 L 128.611 24.447 L 128.611 14.723 L 132.813 14.723 L 132.813 29.771 L 128.611 29.771 L 128.611 28.407 L 128.611 28.407 Q 127.093 29.771 125.003 29.771 L 125.003 29.771 L 125.003 29.771 Q 122.143 29.771 120.647 28.033 L 120.647 28.033 L 120.647 28.033 Q 119.129 26.295 119.129 24.051 L 119.129 24.051 L 119.129 14.723 L 123.353 14.723 L 123.353 22.995 L 123.353 22.995 Q 123.353 24.491 124.101 25.327 L 124.101 25.327 L 124.101 25.327 Q 124.849 26.163 126.367 26.207 L 126.367 26.207 L 126.367 26.207 Q 127.687 26.119 128.611 24.447 Z  M 140.601 36.107 L 136.399 36.085 L 136.399 15.185 L 140.601 14.723 L 140.601 15.933 L 140.601 15.933 Q 142.295 14.723 143.923 14.723 L 143.923 14.723 L 143.923 14.723 Q 147.377 14.723 149.401 16.989 L 149.401 16.989 L 149.401 16.989 Q 151.447 19.233 151.447 22.247 L 151.447 22.247 L 151.447 22.247 Q 151.447 25.261 149.401 27.505 L 149.401 27.505 L 149.401 27.505 Q 147.377 29.771 143.923 29.771 L 143.923 29.771 L 143.923 29.771 Q 141.657 29.617 140.601 28.539 L 140.601 28.539 L 140.601 36.107 Z  M 140.601 20.883 L 140.601 20.883 L 140.601 23.325 L 140.601 23.325 Q 140.909 25.855 143.769 26.295 L 143.769 26.295 L 143.769 26.295 Q 147.377 26.009 147.839 22.555 L 147.839 22.555 L 147.839 22.555 Q 147.685 18.331 143.769 18.177 L 143.769 18.177 L 143.769 18.177 Q 140.909 18.639 140.601 20.883 Z  M 161.237 29.925 L 161.237 29.925 Q 157.959 29.925 155.781 27.725 L 155.781 27.725 L 155.781 27.725 Q 153.581 25.525 153.581 22.269 L 153.581 22.269 L 153.581 22.269 Q 153.581 18.991 155.781 16.791 L 155.781 16.791 L 155.781 16.791 Q 157.959 14.591 161.237 14.591 L 161.237 14.591 L 161.237 14.591 Q 164.515 14.591 166.715 16.791 L 166.715 16.791 L 166.715 16.791 Q 168.915 18.991 168.915 22.269 L 168.915 22.269 L 168.915 22.269 Q 168.915 25.547 166.715 27.725 L 166.715 27.725 L 166.715 27.725 Q 164.515 29.925 161.237 29.925 L 161.237 29.925 Z  M 161.237 26.295 L 161.237 26.295 L 161.237 26.295 Q 162.953 26.295 164.009 25.129 L 164.009 25.129 L 164.009 25.129 Q 165.087 23.985 165.087 22.269 L 165.087 22.269 L 165.087 22.269 Q 165.087 20.553 164.009 19.409 L 164.009 19.409 L 164.009 19.409 Q 162.953 18.243 161.215 18.243 L 161.215 18.243 L 161.215 18.243 Q 159.521 18.243 158.443 19.409 L 158.443 19.409 L 158.443 19.409 Q 157.387 20.553 157.387 22.269 L 157.387 22.269 L 157.387 22.269 Q 157.387 23.985 158.443 25.129 L 158.443 25.129 L 158.443 25.129 Q 159.521 26.295 161.237 26.295 Z  M 175.933 20.157 L 175.933 20.157 L 175.933 29.771 L 171.709 29.771 L 171.709 15.185 L 175.933 14.723 L 175.933 16.065 L 175.933 16.065 Q 177.341 14.745 179.541 14.745 L 179.541 14.745 L 179.541 14.745 Q 182.379 14.745 183.897 16.461 L 183.897 16.461 L 183.897 16.461 Q 185.547 14.745 188.847 14.745 L 188.847 14.745 L 188.847 14.745 Q 191.707 14.745 193.225 16.461 L 193.225 16.461 L 193.225 16.461 Q 194.721 18.199 194.721 20.465 L 194.721 20.465 L 194.721 29.771 L 190.519 29.771 L 190.519 21.499 L 190.519 21.499 Q 190.519 20.003 189.837 19.167 L 189.837 19.167 L 189.837 19.167 Q 189.155 18.353 187.637 18.309 L 187.637 18.309 L 187.637 18.309 Q 186.383 18.397 185.481 19.959 L 185.481 19.959 L 185.481 19.959 Q 185.393 20.421 185.393 20.905 L 185.393 20.905 L 185.393 29.771 L 181.191 29.771 L 181.191 21.499 L 181.191 21.499 Q 181.191 20.003 180.509 19.167 L 180.509 19.167 L 180.509 19.167 Q 179.827 18.353 178.309 18.309 L 178.309 18.309 L 178.309 18.309 Q 176.923 18.397 175.933 20.157 Z  M 200.375 19.101 L 198.725 16.549 L 198.725 16.549 Q 201.585 14.745 205.347 14.745 L 205.347 14.745 L 205.347 14.745 Q 208.053 14.745 209.615 16.241 L 209.615 16.241 L 209.615 16.241 Q 211.199 17.759 211.199 20.751 L 211.199 20.751 L 211.199 29.771 L 206.997 29.771 L 206.997 28.583 L 206.997 28.583 Q 205.149 29.771 203.675 29.771 L 203.675 29.771 L 203.675 29.771 Q 200.683 29.771 199.165 28.495 L 199.165 28.495 L 199.165 28.495 Q 197.669 27.219 197.669 24.975 L 197.669 24.975 L 197.669 24.975 Q 197.669 22.863 199.099 21.213 L 199.099 21.213 L 199.099 21.213 Q 200.507 19.563 203.675 19.563 L 203.675 19.563 L 203.675 19.563 Q 205.149 19.563 206.997 20.465 L 206.997 20.465 L 206.997 20.003 L 206.997 20.003 Q 206.953 18.353 204.577 18.199 L 204.577 18.199 L 204.577 18.199 Q 201.871 18.199 200.375 19.101 L 200.375 19.101 Z  M 206.997 25.261 L 206.997 25.261 L 206.997 23.567 L 206.997 23.567 Q 206.403 22.401 204.137 22.401 L 204.137 22.401 L 204.137 22.401 Q 201.431 22.709 201.277 24.513 L 201.277 24.513 L 201.277 24.513 Q 201.431 26.295 204.137 26.449 L 204.137 26.449 L 204.137 26.449 Q 206.403 26.449 206.997 25.261 Z  M 219.185 20.223 L 219.185 20.223 L 219.185 29.771 L 214.961 29.771 L 214.961 15.185 L 219.185 14.723 L 219.185 16.087 L 219.185 16.087 Q 220.703 14.745 222.793 14.745 L 222.793 14.745 L 222.793 14.745 Q 225.653 14.745 227.149 16.461 L 227.149 16.461 L 227.149 16.461 Q 228.645 18.199 228.645 20.465 L 228.645 20.465 L 228.645 29.771 L 224.443 29.771 L 224.443 21.499 L 224.443 21.499 Q 224.443 20.003 223.695 19.167 L 223.695 19.167 L 223.695 19.167 Q 222.925 18.353 221.407 18.309 L 221.407 18.309 L 221.407 18.309 Q 220.109 18.397 219.185 20.223 Z  M 236.389 29.771 L 232.187 29.771 L 232.187 14.723 L 236.389 14.723 L 236.389 29.771 Z  M 232.033 11.137 L 232.033 11.137 L 232.033 11.137 Q 232.033 12.039 232.627 12.633 L 232.627 12.633 L 232.627 12.633 Q 233.243 13.227 234.299 13.227 L 234.299 13.227 L 234.299 13.227 Q 235.333 13.227 235.949 12.633 L 235.949 12.633 L 235.949 12.633 Q 236.543 12.039 236.543 11.137 L 236.543 11.137 L 236.543 11.137 Q 236.543 10.235 235.949 9.619 L 235.949 9.619 L 235.949 9.619 Q 235.333 9.003 234.255 9.003 L 234.255 9.003 L 234.255 9.003 Q 233.243 9.003 232.627 9.619 L 232.627 9.619 L 232.627 9.619 Q 232.033 10.235 232.033 11.137 Z  M 241.999 19.101 L 240.349 16.549 L 240.349 16.549 Q 243.209 14.745 246.971 14.745 L 246.971 14.745 L 246.971 14.745 Q 249.677 14.745 251.261 16.241 L 251.261 16.241 L 251.261 16.241 Q 252.823 17.759 252.823 20.751 L 252.823 20.751 L 252.823 29.771 L 248.621 29.771 L 248.621 28.583 L 248.621 28.583 Q 246.795 29.771 245.321 29.771 L 245.321 29.771 L 245.321 29.771 Q 242.307 29.771 240.811 28.495 L 240.811 28.495 L 240.811 28.495 Q 239.293 27.219 239.293 24.975 L 239.293 24.975 L 239.293 24.975 Q 239.293 22.863 240.723 21.213 L 240.723 21.213 L 240.723 21.213 Q 242.131 19.563 245.321 19.563 L 245.321 19.563 L 245.321 19.563 Q 246.773 19.563 248.621 20.465 L 248.621 20.465 L 248.621 20.003 L 248.621 20.003 Q 248.599 18.353 246.223 18.199 L 246.223 18.199 L 246.223 18.199 Q 243.517 18.199 241.999 19.101 L 241.999 19.101 Z  M 248.621 25.261 L 248.621 25.261 L 248.621 23.567 L 248.621 23.567 Q 248.027 22.401 245.761 22.401 L 245.761 22.401 L 245.761 22.401 Q 243.055 22.709 242.901 24.513 L 242.901 24.513 L 242.901 24.513 Q 243.055 26.295 245.761 26.449 L 245.761 26.449 L 245.761 26.449 Q 248.027 26.449 248.621 25.261 Z " fill="rgb(253,45,1)"/></g><g><g><g><g><path d=" M 21.664 43.329 C 27.469 43.329 32.911 41.1 37.006 37.006 C 41.1 32.911 43.329 27.469 43.329 21.664 C 43.329 15.86 41.1 10.418 37.006 6.323 C 32.911 2.229 27.469 0 21.664 0 C 15.86 0 10.418 2.229 6.323 6.323 C 2.229 10.418 0 15.86 0 21.664 C 0 27.469 2.229 32.911 6.323 37.006 C 10.418 41.1 15.86 43.329 21.664 43.329 Z  M 22.908 39.649 C 22.494 39.701 22.079 39.701 21.664 39.701 C 21.094 39.701 20.524 39.649 19.954 39.597 C 18.088 36.695 16.689 33.585 15.86 30.32 L 25.033 30.32 C 25.344 31.097 25.914 31.823 26.588 32.289 C 25.707 34.881 24.463 37.317 22.908 39.649 L 22.908 39.649 Z  M 27.832 38.613 C 28.817 36.799 29.594 34.985 30.216 33.067 C 31.719 32.756 32.911 31.719 33.481 30.32 L 37.472 30.32 C 35.399 34.103 31.927 37.058 27.832 38.613 Z  M 39.649 21.664 C 39.649 23.375 39.39 25.033 38.975 26.64 L 33.378 26.64 C 33.067 25.966 32.549 25.344 31.927 24.878 C 32.03 23.738 32.082 22.597 32.082 21.457 C 32.082 19.85 31.978 18.244 31.771 16.689 L 38.924 16.689 C 39.442 18.244 39.649 19.954 39.649 21.664 L 39.649 21.664 Z  M 37.472 13.009 L 31.149 13.009 C 30.475 10.158 29.491 7.463 28.143 4.872 C 32.082 6.375 35.399 9.329 37.472 13.009 Z  M 28.454 21.457 C 28.454 22.338 28.402 23.219 28.35 24.1 C 26.899 24.411 25.707 25.344 25.137 26.64 L 15.134 26.64 C 14.927 25.085 14.771 23.479 14.771 21.924 C 14.771 20.939 14.823 19.954 14.927 18.969 C 16.274 18.71 17.363 17.829 18.036 16.689 L 28.143 16.689 C 28.35 18.244 28.454 19.85 28.454 21.457 L 28.454 21.457 Z  M 20.317 3.732 C 20.783 3.68 21.25 3.68 21.664 3.68 C 22.183 3.68 22.701 3.68 23.219 3.732 C 25.085 6.634 26.485 9.744 27.314 13.009 L 18.296 13.009 C 17.985 12.128 17.415 11.351 16.689 10.78 C 17.622 8.293 18.814 5.96 20.317 3.732 Z  M 15.393 4.768 C 14.512 6.427 13.735 8.189 13.113 9.951 C 11.506 10.262 10.21 11.454 9.692 12.957 L 5.908 12.957 C 7.93 9.277 11.299 6.323 15.393 4.768 Z  M 3.68 21.664 C 3.68 19.954 3.939 18.244 4.405 16.689 L 10.055 16.689 C 10.366 17.259 10.832 17.777 11.351 18.192 C 11.247 19.436 11.143 20.68 11.143 21.924 C 11.143 23.53 11.247 25.085 11.454 26.64 L 4.405 26.64 C 3.887 25.033 3.68 23.375 3.68 21.664 Z  M 12.076 30.268 C 12.75 33.067 13.735 35.814 15.082 38.405 C 11.143 36.85 7.878 33.948 5.857 30.268 L 12.076 30.268 Z " fill="rgb(255,215,215)"/></g></g></g></g></g></g></svg>